<mxfile host="app.diagrams.net" agent="Mozilla/5.0 (Windows NT 10.0; Win64; x64) AppleWebKit/537.36 (KHTML, like Gecko) Chrome/139.0.0.0 Safari/537.36" version="27.0.6">
  <diagram name="Page-1" id="7e0a89b8-554c-2b80-1dc8-d5c74ca68de4">
    <mxGraphModel dx="1042" dy="631" grid="1" gridSize="10" guides="1" tooltips="1" connect="1" arrows="1" fold="1" page="1" pageScale="1" pageWidth="1100" pageHeight="850" background="none" math="0" shadow="0">
      <root>
        <mxCell id="0" />
        <mxCell id="1" parent="0" />
        <mxCell id="GqpIZVUSNvGI2A6IR9i2-1" value="&lt;font style=&quot;font-size: 18px;&quot;&gt;Puff Machine&lt;/font&gt;" style="rounded=1;whiteSpace=wrap;html=1;" vertex="1" parent="1">
          <mxGeometry x="198" y="250" width="120" height="60" as="geometry" />
        </mxCell>
        <mxCell id="GqpIZVUSNvGI2A6IR9i2-2" value="POD&lt;div&gt;(S1)&lt;/div&gt;" style="rounded=1;whiteSpace=wrap;html=1;" vertex="1" parent="1">
          <mxGeometry x="238" y="340" width="40" height="50" as="geometry" />
        </mxCell>
        <mxCell id="GqpIZVUSNvGI2A6IR9i2-3" value="" style="endArrow=classic;startArrow=classic;html=1;rounded=0;exitX=0.5;exitY=0;exitDx=0;exitDy=0;entryX=0.5;entryY=1;entryDx=0;entryDy=0;strokeWidth=2;" edge="1" parent="1" source="GqpIZVUSNvGI2A6IR9i2-2" target="GqpIZVUSNvGI2A6IR9i2-1">
          <mxGeometry width="50" height="50" relative="1" as="geometry">
            <mxPoint x="318" y="260" as="sourcePoint" />
            <mxPoint x="368" y="210" as="targetPoint" />
          </mxGeometry>
        </mxCell>
        <mxCell id="GqpIZVUSNvGI2A6IR9i2-4" value="&amp;nbsp; &amp;nbsp; &amp;nbsp; &amp;nbsp; &amp;nbsp; &amp;nbsp; &amp;nbsp; &amp;nbsp; &amp;nbsp; &amp;nbsp; &amp;nbsp; &amp;nbsp; &amp;nbsp; Relay board" style="rounded=1;whiteSpace=wrap;html=1;" vertex="1" parent="1">
          <mxGeometry x="328" y="429.32000000000005" width="180" height="90" as="geometry" />
        </mxCell>
        <mxCell id="GqpIZVUSNvGI2A6IR9i2-7" value="" style="endArrow=classic;html=1;rounded=0;exitX=1;exitY=0.5;exitDx=0;exitDy=0;entryX=0.678;entryY=0.016;entryDx=0;entryDy=0;entryPerimeter=0;" edge="1" parent="1" target="GqpIZVUSNvGI2A6IR9i2-4">
          <mxGeometry width="50" height="50" relative="1" as="geometry">
            <mxPoint x="318" y="260" as="sourcePoint" />
            <mxPoint x="448" y="410" as="targetPoint" />
            <Array as="points">
              <mxPoint x="388" y="260" />
              <mxPoint x="448" y="260" />
            </Array>
          </mxGeometry>
        </mxCell>
        <mxCell id="GqpIZVUSNvGI2A6IR9i2-8" value="24V(Power)" style="text;html=1;align=center;verticalAlign=middle;whiteSpace=wrap;rounded=0;" vertex="1" parent="1">
          <mxGeometry x="350" y="240" width="60" height="30" as="geometry" />
        </mxCell>
        <mxCell id="GqpIZVUSNvGI2A6IR9i2-10" value="" style="html=1;shape=mxgraph.electrical.electro-mechanical.singleSwitch;aspect=fixed;elSwitchState=off;rotation=90;" vertex="1" parent="1">
          <mxGeometry x="312.71" y="463" width="84.93" height="22.64" as="geometry" />
        </mxCell>
        <mxCell id="GqpIZVUSNvGI2A6IR9i2-11" value="" style="pointerEvents=1;verticalLabelPosition=bottom;shadow=0;dashed=0;align=center;html=1;verticalAlign=top;shape=mxgraph.electrical.inductors.inductor;rotation=-90;" vertex="1" parent="1">
          <mxGeometry x="352" y="463" width="58" height="24" as="geometry" />
        </mxCell>
        <mxCell id="GqpIZVUSNvGI2A6IR9i2-14" style="edgeStyle=orthogonalEdgeStyle;rounded=0;orthogonalLoop=1;jettySize=auto;html=1;entryX=0.112;entryY=-0.009;entryDx=0;entryDy=0;entryPerimeter=0;" edge="1" parent="1" source="GqpIZVUSNvGI2A6IR9i2-2" target="GqpIZVUSNvGI2A6IR9i2-4">
          <mxGeometry relative="1" as="geometry" />
        </mxCell>
        <mxCell id="GqpIZVUSNvGI2A6IR9i2-17" style="edgeStyle=orthogonalEdgeStyle;rounded=0;orthogonalLoop=1;jettySize=auto;html=1;entryX=0;entryY=0.5;entryDx=0;entryDy=0;" edge="1" parent="1" source="GqpIZVUSNvGI2A6IR9i2-15" target="GqpIZVUSNvGI2A6IR9i2-2">
          <mxGeometry relative="1" as="geometry">
            <Array as="points">
              <mxPoint x="212" y="610" />
              <mxPoint x="212" y="365" />
            </Array>
          </mxGeometry>
        </mxCell>
        <mxCell id="GqpIZVUSNvGI2A6IR9i2-15" value="power supply" style="rounded=1;whiteSpace=wrap;html=1;" vertex="1" parent="1">
          <mxGeometry x="232" y="580" width="120" height="60" as="geometry" />
        </mxCell>
        <mxCell id="GqpIZVUSNvGI2A6IR9i2-16" style="edgeStyle=orthogonalEdgeStyle;rounded=0;orthogonalLoop=1;jettySize=auto;html=1;entryX=0.106;entryY=1.004;entryDx=0;entryDy=0;entryPerimeter=0;" edge="1" parent="1" source="GqpIZVUSNvGI2A6IR9i2-15" target="GqpIZVUSNvGI2A6IR9i2-4">
          <mxGeometry relative="1" as="geometry" />
        </mxCell>
        <mxCell id="GqpIZVUSNvGI2A6IR9i2-20" value="Power" style="text;html=1;align=center;verticalAlign=middle;whiteSpace=wrap;rounded=0;rotation=-90;" vertex="1" parent="1">
          <mxGeometry x="160" y="500" width="60" height="30" as="geometry" />
        </mxCell>
        <mxCell id="GqpIZVUSNvGI2A6IR9i2-22" style="edgeStyle=orthogonalEdgeStyle;rounded=0;orthogonalLoop=1;jettySize=auto;html=1;entryX=0.558;entryY=-0.001;entryDx=0;entryDy=0;entryPerimeter=0;" edge="1" parent="1" source="GqpIZVUSNvGI2A6IR9i2-1" target="GqpIZVUSNvGI2A6IR9i2-4">
          <mxGeometry relative="1" as="geometry" />
        </mxCell>
        <mxCell id="GqpIZVUSNvGI2A6IR9i2-23" value="24V(Signal)" style="text;html=1;align=center;verticalAlign=middle;whiteSpace=wrap;rounded=0;" vertex="1" parent="1">
          <mxGeometry x="341" y="280" width="60" height="30" as="geometry" />
        </mxCell>
      </root>
    </mxGraphModel>
  </diagram>
</mxfile>
